<?xml version="1.0" encoding="UTF-8" standalone="no"?>
<!-- Created with Inkscape (http://www.inkscape.org/) -->

<svg
   xmlns:dc="http://purl.org/dc/elements/1.1/"
   xmlns:cc="http://creativecommons.org/ns#"
   xmlns:rdf="http://www.w3.org/1999/02/22-rdf-syntax-ns#"
   xmlns:svg="http://www.w3.org/2000/svg"
   xmlns="http://www.w3.org/2000/svg"
   xmlns:sodipodi="http://sodipodi.sourceforge.net/DTD/sodipodi-0.dtd"
   xmlns:inkscape="http://www.inkscape.org/namespaces/inkscape"
   width="111.52073mm"
   height="52.714882mm"
   viewBox="0 0 395.15219 186.78502"
   id="svg2"
   version="1.1"
   inkscape:version="0.91 r13725"
   sodipodi:docname="lasso.svg">
  <defs
     id="defs4" />
  <sodipodi:namedview
     id="base"
     pagecolor="#ffffff"
     bordercolor="#666666"
     borderopacity="1.0"
     inkscape:pageopacity="0.0"
     inkscape:pageshadow="2"
     inkscape:zoom="1"
     inkscape:cx="116.6035"
     inkscape:cy="192.29985"
     inkscape:document-units="px"
     inkscape:current-layer="layer1"
     showgrid="false"
     inkscape:window-width="2048"
     inkscape:window-height="1089"
     inkscape:window-x="-8"
     inkscape:window-y="-8"
     inkscape:window-maximized="1"
     fit-margin-top="0"
     fit-margin-left="0"
     fit-margin-right="0"
     fit-margin-bottom="0" />
  <metadata
     id="metadata7">
    <rdf:RDF>
      <cc:Work
         rdf:about="">
        <dc:format>image/svg+xml</dc:format>
        <dc:type
           rdf:resource="http://purl.org/dc/dcmitype/StillImage" />
        <dc:title></dc:title>
      </cc:Work>
    </rdf:RDF>
  </metadata>
  <g
     inkscape:label="Layer 1"
     inkscape:groupmode="layer"
     id="layer1"
     transform="translate(-9.5794326,-54.882956)">
    <text
       xml:space="preserve"
       style="font-style:normal;font-weight:normal;font-size:40px;line-height:125%;font-family:sans-serif;letter-spacing:0px;word-spacing:0px;fill:#000000;fill-opacity:1;stroke:none;stroke-width:1px;stroke-linecap:butt;stroke-linejoin:miter;stroke-opacity:1"
       x="535.38086"
       y="892.75812"
       id="text4141"
       sodipodi:linespacing="125%"><tspan
         sodipodi:role="line"
         id="tspan4143"
         x="535.38086"
         y="892.75812"
         style="font-style:normal;font-variant:normal;font-weight:normal;font-stretch:normal;font-size:35px;font-family:Gabriola;-inkscape-font-specification:Gabriola" /></text>
    <g
       id="g4183"
       transform="matrix(2.4361792,0,0,2.7539133,-16.441562,-33.820576)"
       style="stroke:#ffca00;stroke-opacity:0.90196078">
      <g
         style="stroke:#ffca00;stroke-width:3;stroke-miterlimit:4;stroke-dasharray:none;stroke-opacity:0.90196078"
         transform="translate(-68.571429,-185.71429)"
         id="g4177">
        <g
           style="stroke:#ffca00;stroke-width:13.62108421;stroke-miterlimit:4;stroke-dasharray:none;stroke-opacity:0.90196078"
           id="g4145"
           transform="matrix(0.22471677,0,0,0.21586571,49.502561,87.293205)">
          <path
             sodipodi:nodetypes="czsscssc"
             inkscape:connector-curvature="0"
             id="path4136"
             d="M 259.58371,714.29574 C 193.64079,695.98626 113.94272,683.5453 146.82242,646.81833 c 32.8797,-36.72697 201.1321,28.85692 315.1365,-7.795 111.86055,-35.96267 258.22444,-42.38039 258.22444,19.94889 0,62.32928 -248.1905,66.06916 -367.32621,66.06916 -5.56759,-0.008 -14.67149,10.44994 -17.58092,15.06497 -22.77924,36.13313 6.05396,284.22085 -67.77391,112.45939 -13.48839,-31.38089 219.44509,104.74561 194.79092,20.21867"
             style="opacity:0.87999998;fill:none;fill-opacity:1;stroke:#ffca00;stroke-width:13.62108421;stroke-linecap:round;stroke-linejoin:round;stroke-miterlimit:4;stroke-dasharray:none;stroke-opacity:0.90196078" />
          <path
             sodipodi:nodetypes="cscczzsszssc"
             inkscape:connector-curvature="0"
             id="path4138"
             d="m 223.40799,703.55834 c 0,0 32.77874,10.80032 39.75387,12.42241 7.39154,1.71894 16.99153,5.378 25.03702,9.14906 22.6128,10.52001 81.76488,36.62376 83.22969,-2.94556 0.0301,-13.17616 -10.98541,-23.15848 -32.85714,-22.85714 -21.87173,0.30134 -49.24731,9.00939 -56.88016,12.21935 -7.63285,3.20996 -20.78548,12.31572 -14.15302,14.96312 8.29963,3.31287 5.07105,-16.40047 -0.13914,-16.5234 -7.6429,-0.18033 -18.08225,10.68122 -10.51251,13.11512 7.56974,2.43391 4.60441,-15.02666 -2.72716,-16.22208 -6.91492,-1.12748 -16.37384,11.16039 -8.40927,12.61377 10.50603,1.91715 0.78364,-21.23052 0.78364,-21.23052"
             style="fill:none;fill-rule:evenodd;stroke:#ffca00;stroke-width:13.62108421;stroke-linecap:round;stroke-linejoin:miter;stroke-miterlimit:4;stroke-dasharray:none;stroke-opacity:0.90196078" />
        </g>
        <path
           id="path4151"
           style="fill:none;fill-rule:evenodd;stroke:#ffca00;stroke-width:3;stroke-linecap:butt;stroke-linejoin:round;stroke-miterlimit:4;stroke-dasharray:none;stroke-opacity:0.90196078"
           d="m 156.82618,273.02952 c 4.65968,-1.55208 5.5587,-7.95223 8.98759,-6.8005 1.95355,2.85894 -0.5136,8.61264 3.01001,12.07088 3.52361,3.45824 -10.06837,5.53208 -11.16571,1.56454 -0.39187,-4.85093 21.98594,-1.25547 16.02525,1.93558 -4.14132,2.21705 -2.15905,-4.03608 1.09458,-4.27696 3.25363,-0.24087 0.3321,5.87904 8.14786,4.79283 3.90788,-0.5431 4.05783,-4.34194 2.42774,-6.20336 -1.6301,-1.86142 -4.94829,-2.54084 -7.60493,-3.01722 -4.44295,-0.79669 -6.31373,-6.50102 1.41892,-7.09989 7.73265,-0.59887 22.08943,6.16062 20.32749,1.16233 -16.47479,0.23673 -11.90508,6.80853 -7.27852,7.02441 4.62655,0.21588 15.38329,0.68647 11.75041,5.20554 -3.63287,4.51907 -18.35694,3.02527 -13.03458,-0.25524 5.32236,-3.28051 12.23716,3.30041 17.23023,2.87072 4.99307,-0.42969 7.19731,-0.89602 9.76923,-3.03055 2.57192,-2.13453 3.21324,-8.54861 0.22079,-10.63994 -2.99245,-2.09134 -9.2636,-0.68797 -9.25347,3.85246 0.0101,4.54043 1.88193,6.3601 5.62161,7.86564 3.73967,1.50554 18.82406,3.64763 18.65331,0.67293 -0.22742,-3.96199 -4.28287,-3.12075 -3.10472,0.12548 1.17815,3.24623 7.01525,1.05513 10.81557,-0.50377"
           inkscape:connector-curvature="0"
           sodipodi:nodetypes="ccscszsssscczzzzzzzszc" />
      </g>
    </g>
    <path
       style="fill:none;fill-rule:evenodd;stroke:#ffca00;stroke-width:10.9;stroke-linecap:butt;stroke-linejoin:miter;stroke-opacity:0.75294119;stroke-miterlimit:4;stroke-dasharray:none"
       d="m 24.579433,181.66798 c 0,0 19,-10 45,-1"
       id="path4190"
       inkscape:connector-curvature="0" />
  </g>
</svg>
